<svg width="420" height="210" version="1.1" xmlns="http://www.w3.org/2000/svg"><path d="m16.817 198.25c-0.70199-6.1018 0.96047-18.895 2.9663-22.827 2.7159-5.3237 9.6922-11.627 16.883-15.255 3.2087-1.6189 13.034-5.4232 21.834-8.4541s25.675-8.9545 37.5-13.164c11.825-4.2091 22.046-7.8348 22.713-8.0572 3.2995-1.0994 2.8685 19.484-0.54822 26.181-4.6713 9.1566-11.175 12.833-42.165 23.835-13.475 4.7839-31.025 11.057-39 13.94-19.949 7.2117-19.794 7.1826-20.183 3.8009z" fill="#428bde"/><path d="m54.202 127.05c-39.332-10.667-57.223-56.1-35.319-89.691 5.8547-8.9786 13.559-15.936 22.617-20.425 18.18-9.01 36.09-9.0066 53.901 0.010495l7.9007 3.9999 3.8817-4.4098c3.9141-4.4466 10.157-7.5645 18.149-9.0638l3.6677-0.68806v31.515c0 36.599-1.1268 45.244-7.607 58.359-4.2769 8.6558-14.087 19.407-21.773 23.863-13.714 7.9498-31.014 10.438-45.418 6.5314zm25.065-28.62c6.0789-2.0713 13.172-8.4278 16.517-14.802 2.3003-4.3834 2.6907-6.3509 2.7027-13.623 0.011358-6.8817-0.42624-9.3938-2.2985-13.195-11.519-23.387-43.904-23.55-55.208-0.27905-3.3722 6.9422-3.4033 17.796-0.07234 25.244 2.8515 6.3764 11.262 14.416 17.327 16.562 5.6559 2.0016 15.306 2.0441 21.033 0.09274z" fill="#e4087e"/><path d="m346.42 191.25c1.8392-4.2625 5.6592-13.04 8.4889-19.505l5.145-11.755-31.803-76.99h21.575l2.9243 7.75c1.6084 4.2625 6.215 16.66 10.237 27.551 4.022 10.89 7.6581 19.44 8.0803 19 0.42221-0.4403 5.2648-12.726 10.761-27.301l9.9937-26.5 10.21-0.28632c9.4496-0.26499 10.16-0.15326 9.5398 1.5-0.36874 0.98248-11.336 27.097-24.371 58.033l-23.7 56.246-20.424 8e-3 3.3439-7.75zm-143.55-29.31c-31.378-7.4253-46.634-43.818-31.166-74.344 3.8202-7.5387 12.893-16.03 21.487-20.108 24.106-11.44 55.463-2.6817 66.279 18.511 3.6484 7.1486 3.8175 7-7.9682 7h-10.632l-4.7009-4.8262c-12.845-13.187-36.915-10.053-46.084 5.9999-8.8724 15.535-4.9427 37.725 8.2434 46.549 6.0314 4.0362 10.398 5.2643 18.743 5.2714 7.8232 7e-3 14.262-1.9965 19.018-5.9168 3.7434-3.0856 8.5151-11.019 9.0691-15.078l0.34125-2.5-34.5-0.54723v-13.953h54.227l-0.38969 10.25c-0.34089 8.9667-0.78721 11.096-3.5649 17.009-5.5616 11.838-16.443 21.471-28.991 25.664-6.6501 2.222-22.068 2.7557-29.411 1.018zm100.03 0.047c-8.3805-1.4176-13.393-5.2113-16.515-12.501-1.387-3.2377-1.7954-8.2587-2.1751-26.736l-0.46748-22.75h-8.7452v-16h9v-19h20v19h18v16h-18v20.889c0 25.444-0.15157 25.081 10.806 25.865l7.1939 0.51472v15.731l-7.25-0.11762c-3.9875-0.0647-9.3187-0.46754-11.847-0.89522z" fill="#3d3d3d"/></svg>
