<svg width="64" height="64" version="1.1" xmlns="http://www.w3.org/2000/svg"><path d="m14.818 63.276c-0.23198-2.0164 0.3174-6.2441 0.98025-7.5435 0.8975-1.7593 3.2029-3.8423 5.5792-5.0412 1.0604-0.53499 4.3073-1.7922 7.2153-2.7938 2.9081-1.0016 8.4846-2.9591 12.392-4.3502 3.9077-1.391 7.2854-2.5891 7.5058-2.6626 1.0904-0.36331 0.94793 6.4387-0.18117 8.6518-1.5437 3.0259-3.6929 4.2408-13.934 7.8766-4.453 1.5809-10.253 3.6539-12.888 4.6067-6.5924 2.3832-6.5412 2.3736-6.6697 1.2561z" fill="#428bde" stroke-width=".33046"/><path d="m27.041 39.747c-12.998-3.525-18.91-18.539-11.672-29.64 1.9348-2.9671 4.4807-5.2663 7.4741-6.7497 6.0078-2.9775 11.926-2.9763 17.812 0.00347l2.6109 1.3218 1.2828-1.4573c1.2935-1.4694 3.3565-2.4998 5.9976-2.9953l1.212-0.22738v10.415c0 12.095-0.37236 14.951-2.5138 19.285-1.4134 2.8604-4.6552 6.4133-7.1952 7.8858-4.532 2.6271-10.249 3.4494-15.009 2.1584zm8.2831-9.4578c2.0089-0.68449 4.3529-2.7851 5.4583-4.8915 0.76016-1.4486 0.88918-2.0987 0.89314-4.5019 0.0037-2.2741-0.14086-3.1043-0.75957-4.3605-3.8066-7.7285-14.509-7.7824-18.244-0.09222-1.1144 2.2941-1.1247 5.8809-0.02391 8.3422 0.94232 2.1072 3.7217 4.764 5.7259 5.4731 1.8691 0.66146 5.0581 0.6755 6.9506 0.03064z" fill="#e4087e" stroke-width=".33046"/></svg>
